<?xml version="1.0" encoding="UTF-8" standalone="no"?>
<svg
   xmlns:dc="http://purl.org/dc/elements/1.1/"
   xmlns:cc="http://creativecommons.org/ns#"
   xmlns:rdf="http://www.w3.org/1999/02/22-rdf-syntax-ns#"
   xmlns:svg="http://www.w3.org/2000/svg"
   xmlns="http://www.w3.org/2000/svg"
   xmlns:sodipodi="http://sodipodi.sourceforge.net/DTD/sodipodi-0.dtd"
   xmlns:inkscape="http://www.inkscape.org/namespaces/inkscape"
   version="1.0"
   width="1024.000000pt"
   height="455.000000pt"
   viewBox="0 0 1024.000000 455.000000"
   preserveAspectRatio="xMidYMid meet"
   id="svg18"
   sodipodi:docname="main.svg"
   inkscape:version="1.0.2-2 (e86c870879, 2021-01-15)">
  <metadata
     id="metadata24">
    <rdf:RDF>
      <cc:Work
         rdf:about="">
        <dc:format>image/svg+xml</dc:format>
        <dc:type
           rdf:resource="http://purl.org/dc/dcmitype/StillImage" />
      </cc:Work>
    </rdf:RDF>
  </metadata>
  <defs
     id="defs22" />
  <sodipodi:namedview
     pagecolor="#ffffff"
     bordercolor="#666666"
     borderopacity="1"
     objecttolerance="10"
     gridtolerance="10"
     guidetolerance="10"
     inkscape:pageopacity="0"
     inkscape:pageshadow="2"
     inkscape:window-width="1920"
     inkscape:window-height="991"
     id="namedview20"
     showgrid="false"
     inkscape:zoom="1.0495605"
     inkscape:cx="682.66667"
     inkscape:cy="303.33333"
     inkscape:window-x="-9"
     inkscape:window-y="-9"
     inkscape:window-maximized="1"
     inkscape:current-layer="svg18" />
  <g
     transform="matrix(0.10329863,0,0,-0.11227981,-31.399335,471.47844)"
     fill="#000000"
     stroke="none"
     id="g16"
     style="fill:#fd7e14;fill-opacity:1">
    <path
       d="m 7230,1940 v -570 h 75 75 l 2,409 3,409 210,-409 210,-409 h 40 l 40,1 210,410 210,410 5,-292 5,-293 73,155 72,155 v 297 297 h -77 -78 l -164,-323 c -91,-177 -195,-380 -232,-450 l -66,-128 -229,450 -229,451 h -77 -78 z"
       id="path2"
       style="fill:#fd7e14;fill-opacity:1" />
    <path
       d="m 5151,2485 c -152,-34 -279,-128 -344,-253 -52,-102 -62,-150 -62,-307 0,-158 10,-205 64,-309 66,-130 185,-215 347,-252 103,-22 293,-15 377,15 173,61 284,176 331,341 20,74 30,162 22,205 l -7,35 h -289 -290 v -70 -70 h 219 218 l -8,-44 c -27,-147 -139,-254 -299,-287 -79,-16 -232,-6 -299,19 -156,61 -229,176 -239,379 -8,180 29,296 125,383 70,64 141,90 263,97 104,6 185,-9 261,-48 57,-29 124,-100 145,-154 l 17,-45 h 70 70 l -7,32 c -11,56 -53,135 -96,182 -95,103 -230,157 -410,162 -76,3 -136,-1 -179,-11 z"
       id="path4"
       style="fill:#fd7e14;fill-opacity:1" />
    <path
       d="m 6381,2485 c -207,-45 -349,-189 -397,-401 -20,-91 -15,-290 10,-366 60,-187 189,-308 377,-353 83,-19 265,-19 348,0 255,61 401,264 401,560 0,299 -153,504 -416,560 -85,18 -238,18 -323,0 z m 274,-126 c 201,-37 314,-192 315,-430 0,-155 -40,-268 -124,-347 -80,-76 -142,-96 -296,-97 -95,0 -137,4 -176,18 -162,56 -241,177 -251,382 -11,216 56,364 197,436 86,45 218,60 335,38 z"
       id="path6"
       style="fill:#fd7e14;fill-opacity:1" />
    <path
       d="m 2840,1920 v -570 h 238 c 240,0 386,11 431,33 17,8 38,41 67,107 24,52 43,99 43,104 1,6 -11,-2 -26,-17 -16,-14 -55,-38 -88,-54 -59,-28 -62,-28 -287,-31 l -228,-3 v 436 437 l 223,-4 c 257,-4 297,-14 386,-94 88,-79 125,-192 120,-361 -2,-56 -3,-101 -3,-100 1,1 32,68 68,149 l 67,147 -21,63 c -55,163 -177,271 -352,313 -48,11 -131,15 -350,15 h -288 z"
       id="path8"
       style="fill:#fd7e14;fill-opacity:1" />
    <path
       d="m 4151,2453 c -42,-85 -511,-1090 -511,-1096 0,-5 34,-7 76,-5 56,2 79,7 85,18 5,8 33,68 63,133 l 55,117 311,-2 311,-3 61,-132 61,-133 h 80 c 59,0 78,3 74,13 -4,9 -452,961 -520,1105 -9,19 -18,22 -68,22 -58,0 -59,-1 -78,-37 z m 202,-431 c 64,-141 117,-260 117,-264 0,-7 -490,-12 -490,-5 0,2 54,120 120,262 66,143 120,261 120,262 0,2 3,3 8,3 4,0 60,-116 125,-258 z"
       id="path10"
       style="fill:#fd7e14;fill-opacity:1" />
    <path
       d="m 8616,1938 c -142,-304 -261,-561 -264,-571 -4,-16 3,-18 73,-15 l 78,3 60,133 61,132 h 311 311 l 60,-132 60,-133 78,-3 c 71,-3 78,-1 74,15 -3,10 -122,267 -264,570 l -259,553 h -60 -60 z m 448,74 c 64,-139 116,-255 116,-257 0,-3 -110,-5 -245,-5 -135,0 -245,3 -245,6 0,5 213,470 232,508 5,10 13,14 18,10 4,-5 60,-123 124,-262 z"
       id="path12"
       style="fill:#fd7e14;fill-opacity:1" />
    <path
       d="m 1923,1843 c 96,-170 247,-412 274,-438 95,-92 262,-82 353,21 45,52 60,93 60,167 0,119 -80,223 -190,246 -57,12 -504,15 -497,4 z"
       id="path14"
       style="fill:#fd7e14;fill-opacity:1" />
  </g>
</svg>
